# xmcd
#
# Track frame offsets:
#	150
#	24012
#	92000
#	109765
#	130167
#	149630
#
# Disc length: 2310 seconds
#
# Revision: 1
# Processed by: cddbd v1.5.1PL0 Copyright (c) Steve Scherf et al.
# Submitted via: CDex 1.50Beta5
#
DISCID=48090406
DTITLE=水樹奈々 - イミテーション
DYEAR=1900
DGENRE=Pop
TTITLE0=イミテーション
TTITLE1=静流とほたるのCDドラマ『滲んだインク』
TTITLE2=Theme of Shizuru Shirakawa(original)
TTITLE3=Theme of Shizuru Shirakawa(arrange)
TTITLE4=白川静流と菊池志穂の関係学!
TTITLE5=イミテーション(カラオケ)
EXTD=
EXTT0=
EXTT1=
EXTT2=
EXTT3=
EXTT4=
EXTT5=
PLAYORDER=
